<?xml version="1.0" encoding="UTF-8"?>
<svg id="Layer_2" data-name="Layer 2" xmlns="http://www.w3.org/2000/svg" viewBox="0 0 34.9 79.17">
  <defs>
    <style>
      .cls-1 {
        fill-rule: evenodd;
      }
    </style>
  </defs>
  <g id="Layer_1-2" data-name="Layer 1">
    <path class="cls-1" d="M17.45,0c2.5,0,4.77,1.02,6.41,2.65,1.64,1.64,2.65,3.91,2.65,6.41s-1.02,4.77-2.65,6.41c-1.64,1.64-3.9,2.65-6.41,2.65s-4.77-1.02-6.41-2.65c-1.64-1.64-2.65-3.9-2.65-6.41s1.02-4.77,2.65-6.41c1.64-1.64,3.9-2.65,6.41-2.65ZM28.37,51.14v22.12c0,1.63-.66,3.11-1.74,4.18-1.07,1.07-2.55,1.74-4.18,1.74s-3.11-.66-4.18-1.74c-.31-.31-.59-.66-.82-1.03-.24.37-.51.72-.82,1.03-1.07,1.07-2.55,1.74-4.18,1.74s-3.11-.66-4.18-1.74c-1.07-1.07-1.74-2.55-1.74-4.18v-22.12s0-3.37,0-3.37c-.67.46-1.48.73-2.35.73-1.15,0-2.2-.47-2.95-1.23C.47,46.51,0,45.46,0,44.32v-12.59c0-3.14,1.28-6,3.35-8.07s4.93-3.36,8.07-3.36h12.04c3.14,0,6,1.29,8.07,3.36s3.36,4.93,3.36,8.07v12.59c0,1.15-.47,2.2-1.23,2.95-.76.76-1.8,1.23-2.95,1.23-.87,0-1.68-.27-2.35-.73v3.37h0Z"/>
  </g>
</svg>